<?xml version="1.0" encoding="UTF-8" standalone="no"?>
<!-- Generator: Adobe Illustrator 26.0.1, SVG Export Plug-In . SVG Version: 6.00 Build 0)  -->

<svg
   version="1.1"
   x="0px"
   y="0px"
   viewBox="0 0 407.79997 118.5"
   xml:space="preserve"
   id="svg98"
   sodipodi:docname="idmc.svg"
   width="407.79999"
   height="118.5"
   inkscape:version="1.1.2 (0a00cf5339, 2022-02-04)"
   xmlns:inkscape="http://www.inkscape.org/namespaces/inkscape"
   xmlns:sodipodi="http://sodipodi.sourceforge.net/DTD/sodipodi-0.dtd"
   xmlns="http://www.w3.org/2000/svg"
   xmlns:svg="http://www.w3.org/2000/svg"><defs
   id="defs102" /><sodipodi:namedview
   id="namedview100"
   pagecolor="#ffffff"
   bordercolor="#666666"
   borderopacity="1.0"
   inkscape:pageshadow="2"
   inkscape:pageopacity="0.0"
   inkscape:pagecheckerboard="0"
   showgrid="false"
   lock-margins="true"
   fit-margin-top="20"
   fit-margin-left="20"
   fit-margin-right="20"
   fit-margin-bottom="20"
   inkscape:zoom="2.4283089"
   inkscape:cx="165.54731"
   inkscape:cy="136.51476"
   inkscape:window-width="1856"
   inkscape:window-height="1054"
   inkscape:window-x="0"
   inkscape:window-y="0"
   inkscape:window-maximized="1"
   inkscape:current-layer="svg98" />
<g
   id="IDMC_logo_300_p_x5F_inch_xA0_Image_1_"
   transform="translate(19.5,20.3)">
</g>
<g
   id="Layer_2"
   transform="translate(19.5,20.3)">
	<g
   id="g11">
		<polygon
   style="fill:#193256"
   points="17,32 17,21.5 37.1,21.5 37.1,76.9 24,76.9 24,32 "
   id="polygon3" />
		<path
   style="fill:#193256"
   d="M 65.2,76.9 H 48.3 V 1.1 C 59.1,0.7 65.8,0.5 68.6,0.5 c 11.1,0 19.9,3.2 26.4,9.7 6.5,6.5 9.7,15.1 9.7,25.8 0.1,27.3 -13.1,40.9 -39.5,40.9 m -3.3,-64 v 51.8 c 2.2,0.2 4.5,0.3 7.1,0.3 6.8,0 12.1,-2.5 16,-7.4 3.9,-4.9 5.8,-11.8 5.8,-20.7 0,-16.2 -7.6,-24.3 -22.7,-24.3 -1.5,-0.1 -3.5,0 -6.2,0.3"
   id="path5" />
		<polygon
   style="fill:#193256"
   points="162.1,36 146.7,78.1 141.8,78.1 126.6,36 118.5,76.9 105.4,76.9 120.7,1 127.8,1 144.3,52.2 160.4,1 167.5,1 183,76.9 169.9,76.9 "
   id="polygon7" />
		<path
   style="fill:#193256"
   d="m 238.7,5.1 -5.5,11.2 c -3,-3 -7.8,-4.5 -14.5,-4.5 -6.3,0 -11.5,2.6 -15.5,7.9 -4,5.3 -6.1,12 -6.1,20.1 0,8.1 1.9,14.6 5.6,19.3 3.7,4.8 8.7,7.1 15,7.1 7.1,0 12.7,-2.6 16.8,-7.7 l 6.3,10.9 c -5.5,5.9 -13.5,8.8 -24.1,8.8 -10.6,0 -18.8,-3.5 -24.7,-10.5 -5.9,-7 -8.8,-16.5 -8.8,-28.5 0,-11.2 3.3,-20.6 9.8,-28.2 6.5,-7.5 14.8,-11.3 25,-11.3 8.5,0 15.5,1.8 20.7,5.4"
   id="path9" />
	</g>
	<path
   style="fill:#193256"
   d="m 37.9,8.3 c 0,4.6 -3.8,8.4 -8.4,8.4 -4.6,0 -8.4,-3.7 -8.4,-8.4 0,-4.6 3.7,-8.4 8.4,-8.4 4.7,0.1 8.4,3.8 8.4,8.4"
   id="path13" />
	<path
   style="opacity:0.6;fill:#193256"
   d="m 19.1,16.6 c -1.9,0 -3.7,-0.7 -5.2,-1.8 2,-1.5 3.3,-4 3.3,-6.7 0,-2.7 -1.3,-5.1 -3.2,-6.6 1.4,-1.1 3.1,-1.7 5,-1.7 2,0 3.9,0.7 5.3,1.9 -1.9,1.5 -3.2,3.9 -3.2,6.6 0,2.6 1.2,4.9 3.1,6.5 -1.4,1.1 -3.2,1.8 -5.1,1.8"
   id="path15" />
	<path
   style="fill:#193256"
   d="m 24.3,14.8 c -1.9,-1.5 -3.1,-3.9 -3.1,-6.5 0,-2.7 1.2,-5 3.2,-6.6 1.9,1.5 3.1,3.9 3.1,6.5 0,2.7 -1.3,5.1 -3.2,6.6"
   id="path17" />
	<path
   style="opacity:0.4;fill:#193256"
   d="m 8.9,16.5 c -4.6,0 -8.4,-3.8 -8.4,-8.4 0,-4.6 3.7,-8.4 8.4,-8.4 2,0 3.7,0.7 5.2,1.8 -2,1.5 -3.3,4 -3.3,6.7 0,2.7 1.3,5 3.2,6.6 -1.5,1.1 -3.2,1.7 -5.1,1.7"
   id="path19" />
	<path
   style="opacity:0.8;fill:#193256"
   d="M 13.9,14.8 C 12,13.3 10.7,10.9 10.7,8.2 10.7,5.5 12,3.1 14,1.5 c 1.9,1.5 3.2,3.9 3.2,6.6 0,2.8 -1.3,5.2 -3.3,6.7"
   id="path21" />
	<g
   id="g95">
		<path
   style="fill:#193256"
   d="m 260.4,4.9 h -1.9 V 3 h 1.9 z M 258.5,7 h 1.7 v 9.3 h -1.7 z"
   id="path23" />
		<path
   style="fill:#193256"
   d="m 263.4,7 h 1.7 v 1.5 0 c 0.5,-1.1 1.8,-1.7 3.1,-1.7 2.4,0 3.5,1.5 3.5,4 v 5.6 H 270 v -4.8 c 0,-2.2 -0.5,-3.2 -2,-3.3 -2,0 -2.8,1.6 -2.8,3.9 v 4.3 h -1.7 V 7 Z"
   id="path25" />
		<path
   style="fill:#193256"
   d="m 279.6,8.4 h -2.5 v 5.1 c 0,1.1 0.7,1.7 1.4,1.7 0.5,0 0.9,-0.2 1.2,-0.3 v 1.5 c -0.4,0.1 -0.9,0.3 -1.5,0.3 -1.8,0 -2.9,-0.8 -2.9,-2.7 V 8.4 h -2.1 V 7 h 2.1 V 4.9 L 277,4.4 V 7 h 2.5 v 1.4 z"
   id="path27" />
		<path
   style="fill:#193256"
   d="m 288.9,16 c -0.7,0.2 -1.4,0.6 -2.9,0.6 -3.3,0 -4.8,-2 -4.8,-5.1 0,-2.8 1.7,-4.7 4.4,-4.7 3.1,0 4.1,2.3 4.1,5.3 H 283 c 0,1.9 1.4,3.1 3.1,3.1 1.1,0 2.5,-0.6 2.9,-0.9 V 16 Z m -1.1,-5.2 c 0,-1.4 -0.8,-2.6 -2.3,-2.6 -1.7,0 -2.4,1.4 -2.5,2.6 z"
   id="path29" />
		<path
   style="fill:#193256"
   d="m 291.9,7 h 1.6 v 1.4 0 c 0.5,-1 1.4,-1.7 2.4,-1.7 0.5,0 0.8,0.1 1.1,0.1 v 1.5 c -0.3,-0.1 -0.7,-0.2 -1,-0.2 -1.5,0 -2.5,1.5 -2.5,3.8 v 4.3 h -1.7 V 7 Z"
   id="path31" />
		<path
   style="fill:#193256"
   d="m 299.1,7 h 1.7 v 1.5 0 c 0.5,-1.1 1.8,-1.7 3.1,-1.7 2.4,0 3.5,1.5 3.5,4 v 5.6 h -1.7 v -4.8 c 0,-2.2 -0.5,-3.2 -2,-3.3 -2,0 -2.8,1.6 -2.8,3.9 v 4.3 h -1.7 V 7 Z"
   id="path33" />
		<path
   style="fill:#193256"
   d="m 310.7,7.7 c 0.9,-0.5 1.9,-0.9 3.1,-0.9 2.7,0 3.8,1.3 3.8,3.9 v 3.9 c 0,1.1 0,1.6 0.1,1.8 H 316 v -1.2 0 c -0.4,0.6 -1.3,1.4 -2.9,1.4 -2,0 -3.4,-0.9 -3.4,-2.9 0,-2.3 2.6,-3.1 4.3,-3.1 0.7,0 1.2,0 1.8,0 0,-1.6 -0.6,-2.4 -2.3,-2.4 -1,0 -2,0.4 -2.7,1 z m 5.1,4.2 c -0.4,0 -0.7,0 -1.1,0 -0.9,0 -3.2,0.1 -3.2,1.8 0,1 1,1.5 1.7,1.5 1.7,0 2.6,-1.1 2.6,-2.5 z"
   id="path35" />
		<rect
   x="320.70001"
   y="2.5999999"
   style="fill:#193256"
   width="1.7"
   height="13.8"
   id="rect37" />
		<path
   style="fill:#193256"
   d="m 264.9,34.9 v 0 c -0.5,0.7 -1.6,1.5 -3.2,1.5 -2.8,0 -4,-2.5 -4,-5.1 0,-2.5 1.3,-4.7 4,-4.7 1.6,0 2.6,0.6 3.1,1.5 v 0 -5.7 h 1.7 v 13.8 h -1.7 v -1.3 z m -2.8,0.2 c 1.9,0 2.8,-1.9 2.8,-3.5 0,-1.7 -0.9,-3.5 -2.8,-3.5 -1.9,0 -2.6,1.8 -2.6,3.5 0,1.4 0.8,3.5 2.6,3.5"
   id="path39" />
		<path
   style="fill:#193256"
   d="m 271.5,24.8 h -1.9 v -1.9 h 1.9 z m -1.9,2.1 h 1.7 v 9.3 h -1.7 z"
   id="path41" />
		<path
   style="fill:#193256"
   d="m 273.7,34.4 c 0.7,0.4 1.6,0.7 2.1,0.7 0.8,0 1.8,-0.3 1.8,-1.3 0,-1.7 -4.1,-1.6 -4.1,-4.2 0,-1.9 1.4,-2.9 3.3,-2.9 0.8,0 1.5,0.2 2.1,0.4 l -0.1,1.5 c -0.4,-0.2 -1.4,-0.5 -1.8,-0.5 -0.9,0 -1.7,0.4 -1.7,1.1 0,1.9 4.1,1.4 4.1,4.3 0,2 -1.6,2.9 -3.3,2.9 -0.9,0 -1.8,-0.1 -2.6,-0.5 z"
   id="path43" />
		<path
   style="fill:#193256"
   d="m 281.5,26.9 h 1.7 v 1.3 0 c 0.5,-0.7 1.5,-1.5 3.2,-1.5 2.7,0 4,2.2 4,4.7 0,2.6 -1.2,5.1 -4,5.1 -1.7,0 -2.6,-0.6 -3.1,-1.5 v 0 5.1 h -1.7 V 26.9 Z m 4.5,1.2 c -1.9,0 -2.8,1.8 -2.8,3.5 0,1.6 0.8,3.5 2.8,3.5 1.9,0 2.6,-2.1 2.6,-3.5 0,-1.7 -0.8,-3.5 -2.6,-3.5"
   id="path45" />
		<rect
   x="292.79999"
   y="22.5"
   style="fill:#193256"
   width="1.7"
   height="13.8"
   id="rect47" />
		<path
   style="fill:#193256"
   d="m 298,27.6 c 0.9,-0.5 1.9,-0.9 3.1,-0.9 2.7,0 3.8,1.3 3.8,3.9 v 3.9 c 0,1.1 0,1.6 0.1,1.8 h -1.6 V 35 35 c -0.4,0.6 -1.3,1.4 -2.9,1.4 -2,0 -3.4,-0.9 -3.4,-2.9 0,-2.3 2.6,-3.1 4.3,-3.1 0.7,0 1.2,0 1.8,0 0,-1.6 -0.6,-2.4 -2.3,-2.4 -1,0 -2,0.4 -2.7,1 z m 5.1,4.2 c -0.4,0 -0.7,0 -1.1,0 -0.9,0 -3.2,0.1 -3.2,1.8 0,1 1,1.5 1.7,1.5 1.7,0 2.6,-1.1 2.6,-2.5 z"
   id="path49" />
		<path
   style="fill:#193256"
   d="m 313.6,28.5 c -0.7,-0.3 -1.3,-0.4 -1.9,-0.4 -1.9,0 -3,1.7 -3,3.5 0,1.7 0.9,3.5 3.1,3.5 0.6,0 1.3,-0.2 1.8,-0.5 l 0.1,1.5 c -0.7,0.3 -1.5,0.4 -2.2,0.4 -2.8,0 -4.8,-2.2 -4.8,-4.9 0,-2.8 1.9,-4.9 4.8,-4.9 0.7,0 1.6,0.2 2.1,0.4 z"
   id="path51" />
		<path
   style="fill:#193256"
   d="m 322.9,35.9 c -0.7,0.2 -1.4,0.6 -3,0.6 -3.3,0 -4.8,-2 -4.8,-5.1 0,-2.8 1.7,-4.7 4.4,-4.7 3.1,0 4.1,2.3 4.1,5.3 h -6.7 c 0,1.9 1.4,3.1 3.1,3.1 1.1,0 2.5,-0.6 2.9,-0.9 z m -1.1,-5.2 c 0,-1.4 -0.8,-2.6 -2.3,-2.6 -1.7,0 -2.4,1.4 -2.5,2.6 z"
   id="path53" />
		<path
   style="fill:#193256"
   d="m 325.8,26.9 h 1.6 v 1.4 0 c 0.7,-1.1 1.6,-1.6 3,-1.6 1.1,0 2.2,0.6 2.7,1.8 0.6,-1.3 2.1,-1.8 2.9,-1.8 2.4,0 3.2,1.5 3.2,3.6 v 6 h -1.7 v -5.6 c 0,-1.2 -0.3,-2.6 -1.7,-2.6 -1.8,0 -2.5,1.7 -2.5,3.5 v 4.7 h -1.7 v -5.6 c 0,-1.2 -0.3,-2.6 -1.7,-2.6 -1.8,0 -2.5,1.7 -2.5,3.5 v 4.7 h -1.7 v -9.4 z"
   id="path55" />
		<path
   style="fill:#193256"
   d="m 349.2,35.9 c -0.7,0.2 -1.4,0.6 -3,0.6 -3.3,0 -4.8,-2 -4.8,-5.1 0,-2.8 1.7,-4.7 4.4,-4.7 3.1,0 4.1,2.3 4.1,5.3 h -6.7 c 0,1.9 1.4,3.1 3.1,3.1 1.1,0 2.5,-0.6 2.9,-0.9 z m -1.1,-5.2 c 0,-1.4 -0.8,-2.6 -2.3,-2.6 -1.7,0 -2.4,1.4 -2.5,2.6 z"
   id="path57" />
		<path
   style="fill:#193256"
   d="m 352.2,26.9 h 1.7 v 1.5 0 c 0.5,-1.1 1.8,-1.7 3.1,-1.7 2.4,0 3.5,1.5 3.5,4 v 5.6 h -1.7 v -4.8 c 0,-2.2 -0.5,-3.2 -2,-3.3 -2,0 -2.8,1.6 -2.8,3.8 v 4.3 h -1.7 v -9.4 z"
   id="path59" />
		<path
   style="fill:#193256"
   d="m 368.2,28.3 h -2.5 v 5.1 c 0,1.1 0.7,1.7 1.4,1.7 0.5,0 0.9,-0.2 1.2,-0.3 v 1.5 c -0.4,0.1 -0.9,0.3 -1.5,0.3 -1.8,0 -2.9,-0.8 -2.9,-2.7 v -5.5 h -2.1 V 27 h 2.1 v -2.2 l 1.7,-0.5 V 27 h 2.5 v 1.3 z"
   id="path61" />
		<path
   style="fill:#193256"
   d="m 258.3,47.4 h 1.6 v 1.4 0 c 0.7,-1.1 1.6,-1.6 3,-1.6 1.1,0 2.2,0.6 2.7,1.8 0.6,-1.3 2.1,-1.8 2.9,-1.8 2.4,0 3.2,1.5 3.2,3.6 v 6 H 270 v -5.6 c 0,-1.2 -0.3,-2.6 -1.7,-2.6 -1.8,0 -2.5,1.7 -2.5,3.5 v 4.7 h -1.7 v -5.6 c 0,-1.2 -0.3,-2.6 -1.7,-2.6 -1.8,0 -2.5,1.7 -2.5,3.5 v 4.7 h -1.7 v -9.4 z"
   id="path63" />
		<path
   style="fill:#193256"
   d="m 278.8,47.2 c 2.8,0 4.8,2.1 4.8,4.9 0,2.7 -1.9,4.9 -4.8,4.9 -2.8,0 -4.8,-2.2 -4.8,-4.9 0,-2.9 1.9,-4.9 4.8,-4.9 m 0,8.4 c 2,0 2.9,-1.8 2.9,-3.5 0,-1.8 -1.1,-3.5 -2.9,-3.5 -1.9,0 -2.9,1.7 -2.9,3.5 -0.1,1.6 0.8,3.5 2.9,3.5"
   id="path65" />
		<path
   style="fill:#193256"
   d="m 285.8,47.4 h 1.7 v 1.5 0 c 0.5,-1.1 1.8,-1.7 3.1,-1.7 2.4,0 3.5,1.5 3.5,4 v 5.6 h -1.7 V 52 c 0,-2.2 -0.5,-3.2 -2,-3.3 -2,0 -2.8,1.6 -2.8,3.9 v 4.3 h -1.7 v -9.5 z"
   id="path67" />
		<path
   style="fill:#193256"
   d="m 299.1,45.3 h -1.9 v -1.9 h 1.9 z m -1.9,2.1 h 1.7 v 9.3 h -1.7 z"
   id="path69" />
		<path
   style="fill:#193256"
   d="m 307.1,48.8 h -2.5 v 5.1 c 0,1.1 0.7,1.7 1.4,1.7 0.5,0 0.9,-0.2 1.2,-0.3 v 1.5 c -0.4,0.1 -0.9,0.3 -1.5,0.3 -1.8,0 -2.9,-0.8 -2.9,-2.7 v -5.5 h -2.1 v -1.4 h 2.1 v -2.2 l 1.7,-0.5 v 2.7 h 2.5 v 1.3 z"
   id="path71" />
		<path
   style="fill:#193256"
   d="m 313.4,47.2 c 2.8,0 4.7,2.1 4.7,4.9 0,2.7 -1.9,4.9 -4.7,4.9 -2.8,0 -4.8,-2.2 -4.8,-4.9 0,-2.9 1.9,-4.9 4.8,-4.9 m 0,8.4 c 2,0 2.9,-1.8 2.9,-3.5 0,-1.8 -1.1,-3.5 -2.9,-3.5 -1.9,0 -2.9,1.7 -2.9,3.5 0,1.6 0.9,3.5 2.9,3.5"
   id="path73" />
		<path
   style="fill:#193256"
   d="m 320.4,47.4 h 1.6 v 1.4 0 c 0.5,-1 1.5,-1.7 2.4,-1.7 0.5,0 0.8,0.1 1.1,0.1 v 1.5 c -0.3,-0.1 -0.7,-0.2 -1,-0.2 -1.5,0 -2.6,1.5 -2.6,3.8 v 4.3 h -1.7 v -9.2 z"
   id="path75" />
		<path
   style="fill:#193256"
   d="m 329.6,45.3 h -1.9 v -1.9 h 1.9 z m -1.8,2.1 h 1.7 v 9.3 h -1.7 z"
   id="path77" />
		<path
   style="fill:#193256"
   d="m 332.7,47.4 h 1.7 v 1.5 0 c 0.5,-1.1 1.8,-1.7 3.1,-1.7 2.4,0 3.5,1.5 3.5,4 v 5.6 h -1.7 V 52 c 0,-2.2 -0.5,-3.2 -2,-3.3 -2,0 -2.8,1.6 -2.8,3.9 v 4.3 h -1.7 v -9.5 z"
   id="path79" />
		<path
   style="fill:#193256"
   d="m 352.1,56.3 c 0,2.8 -1.5,4.5 -4.8,4.5 -1,0 -1.9,-0.1 -3.4,-0.6 l 0.2,-1.6 c 1.3,0.6 2.1,0.8 3.4,0.8 1.8,0 2.9,-1.2 2.9,-3.2 v -0.9 0 c -0.7,1 -1.9,1.4 -3.1,1.4 -2.7,0 -4,-2.2 -4,-4.6 0,-2.4 1.4,-5 4.2,-5 1.7,0 2.6,0.6 3.1,1.6 v 0 -1.4 h 1.6 v 9 z m -1.7,-4.1 c 0,-1.9 -0.9,-3.6 -2.7,-3.6 -1.7,0 -2.6,1.9 -2.6,3.5 0,1.8 1,3.3 2.6,3.3 1.6,-0.1 2.7,-1.5 2.7,-3.2"
   id="path81" />
		<path
   style="fill:#193256"
   d="m 264.3,68.7 c -0.7,-0.3 -1.3,-0.4 -1.9,-0.4 -1.9,0 -3,1.7 -3,3.5 0,1.7 0.9,3.5 3.1,3.5 0.6,0 1.3,-0.2 1.8,-0.5 l 0.1,1.5 c -0.7,0.3 -1.5,0.4 -2.2,0.4 -2.8,0 -4.8,-2.2 -4.8,-4.9 0,-2.8 1.9,-4.9 4.8,-4.9 0.7,0 1.6,0.2 2.1,0.4 z"
   id="path83" />
		<path
   style="fill:#193256"
   d="m 273.6,76 c -0.7,0.2 -1.4,0.6 -2.9,0.6 -3.3,0 -4.8,-2 -4.8,-5.1 0,-2.8 1.7,-4.7 4.4,-4.7 3.1,0 4.1,2.3 4.1,5.3 h -6.7 c 0,1.9 1.4,3.1 3.1,3.1 1.1,0 2.5,-0.6 2.9,-0.9 V 76 Z m -1.1,-5.1 c 0,-1.4 -0.8,-2.6 -2.3,-2.6 -1.7,0 -2.4,1.4 -2.5,2.6 z"
   id="path85" />
		<path
   style="fill:#193256"
   d="m 276.6,67.1 h 1.7 v 1.5 0 c 0.5,-1.1 1.8,-1.7 3.1,-1.7 2.4,0 3.5,1.5 3.5,4 v 5.6 h -1.7 v -4.8 c 0,-2.2 -0.5,-3.2 -2,-3.3 -2,0 -2.8,1.6 -2.8,3.8 v 4.3 h -1.7 v -9.4 z"
   id="path87" />
		<path
   style="fill:#193256"
   d="m 292.8,68.5 h -2.5 v 5.1 c 0,1.1 0.7,1.7 1.4,1.7 0.5,0 0.9,-0.2 1.2,-0.3 v 1.5 c -0.4,0.1 -0.9,0.3 -1.5,0.3 -1.8,0 -2.9,-0.8 -2.9,-2.7 v -5.5 h -2.1 v -1.4 h 2.1 V 65 l 1.7,-0.5 v 2.7 h 2.5 v 1.3 z"
   id="path89" />
		<path
   style="fill:#193256"
   d="m 295,67.1 h 1.6 v 1.4 0 c 0.5,-1 1.4,-1.7 2.4,-1.7 0.5,0 0.8,0.1 1.1,0.1 v 1.5 c -0.3,-0.1 -0.7,-0.2 -1,-0.2 -1.5,0 -2.5,1.5 -2.5,3.8 v 4.3 H 295 Z"
   id="path91" />
		<path
   style="fill:#193256"
   d="m 309.3,76 c -0.7,0.2 -1.4,0.6 -3,0.6 -3.3,0 -4.8,-2 -4.8,-5.1 0,-2.8 1.7,-4.7 4.4,-4.7 3.1,0 4.1,2.3 4.1,5.3 h -6.7 c 0,1.9 1.4,3.1 3.1,3.1 1.1,0 2.5,-0.6 2.9,-0.9 z m -1.1,-5.1 c 0,-1.4 -0.8,-2.6 -2.3,-2.6 -1.7,0 -2.4,1.4 -2.5,2.6 z"
   id="path93" />
	</g>
</g>
</svg>
